<svg xmlns="http://www.w3.org/2000/svg" viewBox="0 0 200 200" aria-label="SkillSync logo">
  <defs>
    <linearGradient id="g1" x1="0" x2="1" y1="0" y2="1">
      <stop offset="0" stop-color="#19c6a8"/>
      <stop offset="1" stop-color="#0ea5a4"/>
    </linearGradient>
    <linearGradient id="g2" x1="0" x2="1" y1="0" y2="1">
      <stop offset="0" stop-color="#06b6d4"/>
      <stop offset="1" stop-color="#4f46e5"/>
    </linearGradient>
    <filter id="f1" x="-20%" y="-20%" width="140%" height="140%">
      <feDropShadow dx="0" dy="6" stdDeviation="10" flood-color="#0b1220" flood-opacity="0.12"/>
    </filter>
  </defs>

  <rect width="200" height="200" rx="28" fill="#ffffff"/>

  <!-- outer ring and arrows -->
  <g transform="translate(100,100)">
    <path d="M-68 0a68 68 0 0 1 136 0" fill="none" stroke="url(#g1)" stroke-width="14" stroke-linecap="round" stroke-linejoin="round" filter="url(#f1)" opacity="0.95"/>
    <path d="M59 -8 L74 0 L59 8" fill="url(#g1)" transform="rotate(20) translate(0,-62)"/>

    <path d="M-52 8a52 52 0 0 1 88 -24" fill="none" stroke="url(#g2)" stroke-width="12" stroke-linecap="round" stroke-linejoin="round" opacity="0.95"/>
    <path d="M38 -20 L52 -12 L44 0" fill="url(#g2)" transform="rotate(-45) translate(0,-36)"/>

    <circle cx="0" cy="0" r="46" fill="none" stroke="rgba(15,23,42,0.03)" stroke-width="10"/>

    <!-- Central S shape -->
    <g transform="translate(0,6)">
      <path d="M-26 -22c6 -10 30 -18 46 -8 8 5 10 14 4 18-6 3-14 2-22 6-9 4-18 14-10 26 6 8 20 10 34 6" fill="none" stroke="#ffffff" stroke-width="8" stroke-linecap="round" stroke-linejoin="round"/>
      <path d="M-26 -22c6 -10 30 -18 46 -8 8 5 10 14 4 18-6 3-14 2-22 6-9 4-18 14-10 26 6 8 20 10 34 6" fill="none" stroke="rgba(0,0,0,0.08)" stroke-width="2" stroke-linecap="round" stroke-linejoin="round" transform="translate(1,1)"/>
    </g>
  </g>

</svg>